<mxfile host="app.diagrams.net" modified="2024-06-19T10:51:53.110Z" agent="Mozilla/5.0 (Windows NT 10.0; Win64; x64) AppleWebKit/537.36 (KHTML, like Gecko) Chrome/126.0.0.0 Safari/537.36" etag="01n2-GNQ7eVXsnMspBQ2" version="23.1.5" type="github">
  <diagram name="Page-1" id="l8eHwiuaROmiQeQfSrkI">
    <mxGraphModel dx="1114" dy="1676" grid="1" gridSize="10" guides="1" tooltips="1" connect="1" arrows="1" fold="1" page="1" pageScale="1" pageWidth="850" pageHeight="1100" math="0" shadow="0">
      <root>
        <mxCell id="0" />
        <mxCell id="1" parent="0" />
        <mxCell id="AnWLxpFsmdjOpDhi5G_N-1" value="" style="whiteSpace=wrap;html=1;fillColor=#dae8fc;strokeColor=#6c8ebf;" vertex="1" parent="1">
          <mxGeometry x="160" y="-760" width="570" height="870" as="geometry" />
        </mxCell>
        <mxCell id="AnWLxpFsmdjOpDhi5G_N-13" style="rounded=0;orthogonalLoop=1;jettySize=auto;html=1;strokeColor=default;endArrow=none;endFill=0;" edge="1" parent="1" source="AnWLxpFsmdjOpDhi5G_N-2" target="AnWLxpFsmdjOpDhi5G_N-11">
          <mxGeometry relative="1" as="geometry" />
        </mxCell>
        <mxCell id="AnWLxpFsmdjOpDhi5G_N-22" style="rounded=0;orthogonalLoop=1;jettySize=auto;html=1;endArrow=none;endFill=0;" edge="1" parent="1" source="AnWLxpFsmdjOpDhi5G_N-2" target="AnWLxpFsmdjOpDhi5G_N-18">
          <mxGeometry relative="1" as="geometry" />
        </mxCell>
        <mxCell id="AnWLxpFsmdjOpDhi5G_N-23" style="rounded=0;orthogonalLoop=1;jettySize=auto;html=1;endArrow=none;endFill=0;" edge="1" parent="1" source="AnWLxpFsmdjOpDhi5G_N-2" target="AnWLxpFsmdjOpDhi5G_N-17">
          <mxGeometry relative="1" as="geometry" />
        </mxCell>
        <mxCell id="AnWLxpFsmdjOpDhi5G_N-24" style="rounded=0;orthogonalLoop=1;jettySize=auto;html=1;endArrow=none;endFill=0;" edge="1" parent="1" source="AnWLxpFsmdjOpDhi5G_N-2" target="AnWLxpFsmdjOpDhi5G_N-19">
          <mxGeometry relative="1" as="geometry" />
        </mxCell>
        <mxCell id="AnWLxpFsmdjOpDhi5G_N-2" value="Admin&lt;div&gt;&lt;br/&gt;&lt;/div&gt;" style="shape=umlActor;verticalLabelPosition=bottom;verticalAlign=top;html=1;outlineConnect=0;" vertex="1" parent="1">
          <mxGeometry x="70" y="-640" width="30" height="60" as="geometry" />
        </mxCell>
        <mxCell id="AnWLxpFsmdjOpDhi5G_N-27" style="rounded=0;orthogonalLoop=1;jettySize=auto;html=1;endArrow=none;endFill=0;" edge="1" parent="1" source="AnWLxpFsmdjOpDhi5G_N-7" target="AnWLxpFsmdjOpDhi5G_N-19">
          <mxGeometry relative="1" as="geometry" />
        </mxCell>
        <mxCell id="AnWLxpFsmdjOpDhi5G_N-30" style="rounded=0;orthogonalLoop=1;jettySize=auto;html=1;endArrow=none;endFill=0;" edge="1" parent="1" source="AnWLxpFsmdjOpDhi5G_N-7" target="AnWLxpFsmdjOpDhi5G_N-28">
          <mxGeometry relative="1" as="geometry" />
        </mxCell>
        <mxCell id="AnWLxpFsmdjOpDhi5G_N-31" style="rounded=0;orthogonalLoop=1;jettySize=auto;html=1;endArrow=none;endFill=0;" edge="1" parent="1" source="AnWLxpFsmdjOpDhi5G_N-7" target="AnWLxpFsmdjOpDhi5G_N-29">
          <mxGeometry relative="1" as="geometry" />
        </mxCell>
        <mxCell id="AnWLxpFsmdjOpDhi5G_N-33" style="rounded=0;orthogonalLoop=1;jettySize=auto;html=1;endArrow=none;endFill=0;" edge="1" parent="1" source="AnWLxpFsmdjOpDhi5G_N-7" target="AnWLxpFsmdjOpDhi5G_N-32">
          <mxGeometry relative="1" as="geometry" />
        </mxCell>
        <mxCell id="AnWLxpFsmdjOpDhi5G_N-7" value="Client&lt;div&gt;&lt;br/&gt;&lt;/div&gt;" style="shape=umlActor;verticalLabelPosition=bottom;verticalAlign=top;html=1;outlineConnect=0;" vertex="1" parent="1">
          <mxGeometry x="70" y="-390" width="30" height="60" as="geometry" />
        </mxCell>
        <mxCell id="AnWLxpFsmdjOpDhi5G_N-16" style="rounded=0;orthogonalLoop=1;jettySize=auto;html=1;entryX=1;entryY=0.5;entryDx=0;entryDy=0;endArrow=none;endFill=0;" edge="1" parent="1" source="AnWLxpFsmdjOpDhi5G_N-8" target="AnWLxpFsmdjOpDhi5G_N-14">
          <mxGeometry relative="1" as="geometry" />
        </mxCell>
        <mxCell id="AnWLxpFsmdjOpDhi5G_N-26" style="rounded=0;orthogonalLoop=1;jettySize=auto;html=1;endArrow=none;endFill=0;" edge="1" parent="1" source="AnWLxpFsmdjOpDhi5G_N-8" target="AnWLxpFsmdjOpDhi5G_N-19">
          <mxGeometry relative="1" as="geometry" />
        </mxCell>
        <mxCell id="AnWLxpFsmdjOpDhi5G_N-39" style="rounded=0;orthogonalLoop=1;jettySize=auto;html=1;endArrow=none;endFill=0;" edge="1" parent="1" source="AnWLxpFsmdjOpDhi5G_N-8" target="AnWLxpFsmdjOpDhi5G_N-32">
          <mxGeometry relative="1" as="geometry" />
        </mxCell>
        <mxCell id="AnWLxpFsmdjOpDhi5G_N-8" value="Visiteur&lt;div&gt;&lt;br/&gt;&lt;/div&gt;" style="shape=umlActor;verticalLabelPosition=bottom;verticalAlign=top;html=1;outlineConnect=0;" vertex="1" parent="1">
          <mxGeometry x="740" y="-490" width="30" height="60" as="geometry" />
        </mxCell>
        <mxCell id="AnWLxpFsmdjOpDhi5G_N-11" value="Gerer des information du site" style="ellipse;whiteSpace=wrap;html=1;" vertex="1" parent="1">
          <mxGeometry x="360" y="-730" width="120" height="70" as="geometry" />
        </mxCell>
        <mxCell id="AnWLxpFsmdjOpDhi5G_N-14" value="Inscription" style="ellipse;whiteSpace=wrap;html=1;" vertex="1" parent="1">
          <mxGeometry x="510" y="-540" width="120" height="60" as="geometry" />
        </mxCell>
        <mxCell id="AnWLxpFsmdjOpDhi5G_N-17" value="Gerer les commandes" style="ellipse;whiteSpace=wrap;html=1;" vertex="1" parent="1">
          <mxGeometry x="260" y="-590" width="120" height="70" as="geometry" />
        </mxCell>
        <mxCell id="AnWLxpFsmdjOpDhi5G_N-25" value="&amp;lt;&amp;lt;extends&amp;gt;&amp;gt;" style="edgeStyle=orthogonalEdgeStyle;rounded=0;orthogonalLoop=1;jettySize=auto;html=1;entryX=0;entryY=0.5;entryDx=0;entryDy=0;dashed=1;" edge="1" parent="1" source="AnWLxpFsmdjOpDhi5G_N-18" target="AnWLxpFsmdjOpDhi5G_N-20">
          <mxGeometry relative="1" as="geometry" />
        </mxCell>
        <mxCell id="AnWLxpFsmdjOpDhi5G_N-18" value="Gerer les&amp;nbsp; produits" style="ellipse;whiteSpace=wrap;html=1;" vertex="1" parent="1">
          <mxGeometry x="310" y="-660" width="120" height="70" as="geometry" />
        </mxCell>
        <mxCell id="AnWLxpFsmdjOpDhi5G_N-19" value="Afficher les produits" style="ellipse;whiteSpace=wrap;html=1;" vertex="1" parent="1">
          <mxGeometry x="210" y="-500" width="120" height="70" as="geometry" />
        </mxCell>
        <mxCell id="AnWLxpFsmdjOpDhi5G_N-20" value="Gerer les&amp;nbsp; categories" style="ellipse;whiteSpace=wrap;html=1;" vertex="1" parent="1">
          <mxGeometry x="540" y="-660" width="120" height="70" as="geometry" />
        </mxCell>
        <mxCell id="AnWLxpFsmdjOpDhi5G_N-28" value="Gerer ses commandes" style="ellipse;whiteSpace=wrap;html=1;" vertex="1" parent="1">
          <mxGeometry x="270" y="-430" width="120" height="70" as="geometry" />
        </mxCell>
        <mxCell id="AnWLxpFsmdjOpDhi5G_N-29" value="Modifier ses donnees personnelles" style="ellipse;whiteSpace=wrap;html=1;" vertex="1" parent="1">
          <mxGeometry x="220" y="-360" width="120" height="70" as="geometry" />
        </mxCell>
        <mxCell id="AnWLxpFsmdjOpDhi5G_N-32" value="Commander" style="ellipse;whiteSpace=wrap;html=1;" vertex="1" parent="1">
          <mxGeometry x="270" y="-280" width="120" height="70" as="geometry" />
        </mxCell>
        <mxCell id="AnWLxpFsmdjOpDhi5G_N-37" style="edgeStyle=orthogonalEdgeStyle;rounded=0;orthogonalLoop=1;jettySize=auto;html=1;dashed=1;dashPattern=1 4;" edge="1" parent="1" source="AnWLxpFsmdjOpDhi5G_N-34" target="AnWLxpFsmdjOpDhi5G_N-32">
          <mxGeometry relative="1" as="geometry" />
        </mxCell>
        <mxCell id="AnWLxpFsmdjOpDhi5G_N-38" value="&amp;lt;&amp;lt;include&amp;gt;&amp;gt;" style="edgeLabel;html=1;align=center;verticalAlign=middle;resizable=0;points=[];" vertex="1" connectable="0" parent="AnWLxpFsmdjOpDhi5G_N-37">
          <mxGeometry relative="1" as="geometry">
            <mxPoint as="offset" />
          </mxGeometry>
        </mxCell>
        <mxCell id="AnWLxpFsmdjOpDhi5G_N-34" value="Connexion" style="ellipse;whiteSpace=wrap;html=1;" vertex="1" parent="1">
          <mxGeometry x="270" y="-140" width="120" height="70" as="geometry" />
        </mxCell>
      </root>
    </mxGraphModel>
  </diagram>
</mxfile>
